<svg xmlns="http://www.w3.org/2000/svg" width="30" height="30" viewBox="0 0 30 30"><defs><style>.a{fill:#fff;}</style></defs><g transform="translate(30 30) rotate(180)"><path class="a" d="M30,15A15,15,0,1,0,15,30,15.016,15.016,0,0,0,30,15ZM2.1,15A12.9,12.9,0,1,1,15,27.9,12.913,12.913,0,0,1,2.1,15Z"/><path class="a" d="M207.085,160.5l-4.414-4.414a1.052,1.052,0,0,0-1.488,1.488l3.673,3.673-3.673,3.673a1.05,1.05,0,1,0,1.482,1.488l4.414-4.414A1.055,1.055,0,0,0,207.085,160.5Z" transform="translate(-188.577 -146.238)"/></g></svg>