<svg xmlns="http://www.w3.org/2000/svg" width="180" height="51.185" viewBox="0 0 180 51.185">
  <g id="Group_30" data-name="Group 30" transform="translate(-518.032 -410.274)">
    <path id="Path_49" data-name="Path 49" d="M556.42,410.274H518.032v51.185h51.185V423.07A12.8,12.8,0,0,0,556.42,410.274Zm8.756,47.144h-43.1v-43.1H556.42a8.766,8.766,0,0,1,8.756,8.755v34.348Z" fill="#fff"/>
    <rect id="Rectangle_14" data-name="Rectangle 14" width="8.082" height="8.082" transform="translate(525.449 417.675)" fill="#42beb2"/>
    <rect id="Rectangle_15" data-name="Rectangle 15" width="8.082" height="8.082" transform="translate(525.449 436.53)" fill="#f89d36"/>
    <rect id="Rectangle_16" data-name="Rectangle 16" width="8.082" height="8.082" transform="translate(534.878 427.101)" fill="#f89d36"/>
    <rect id="Rectangle_17" data-name="Rectangle 17" width="8.082" height="8.082" transform="translate(544.298 417.675)" fill="#42beb2"/>
    <rect id="Rectangle_18" data-name="Rectangle 18" width="8.082" height="8.082" transform="translate(544.298 436.53)" fill="#42beb2"/>
    <rect id="Rectangle_19" data-name="Rectangle 19" width="8.082" height="8.082" transform="translate(553.727 427.101)" fill="#42beb2"/>
    <rect id="Rectangle_20" data-name="Rectangle 20" width="8.082" height="8.082" transform="translate(534.872 445.959)" fill="#f89d36"/>
    <rect id="Rectangle_21" data-name="Rectangle 21" width="8.082" height="8.082" transform="translate(553.727 445.959)" fill="#f89d36"/>
    <g id="Group_29" data-name="Group 29" transform="translate(584.288 425.898)">
      <path id="Path_50" data-name="Path 50" d="M615.525,443.3,606,430.386h-4.5V450.94h4.376v-13.4l9.8,13.4H619.9V430.386h-4.376Z" transform="translate(-601.504 -430.046)" fill="#fff"/>
      <path id="Path_51" data-name="Path 51" d="M643.2,429.958a10.632,10.632,0,1,0,10.724,10.632A10.328,10.328,0,0,0,643.2,429.958Zm0,17.381c-3.821,0-6.255-2.927-6.255-6.749,0-3.851,2.434-6.748,6.255-6.748,3.79,0,6.225,2.9,6.225,6.748C649.426,444.411,646.991,447.339,643.2,447.339Z" transform="translate(-607.885 -429.958)" fill="#fff"/>
      <path id="Path_52" data-name="Path 52" d="M664.749,434.238h6.009v16.7h4.407v-16.7h5.978v-3.852H664.749Z" transform="translate(-614.548 -430.046)" fill="#fff"/>
      <path id="Path_53" data-name="Path 53" d="M706.9,442.588c0,2.866-1.633,4.839-4.808,4.839s-4.838-1.972-4.838-4.839v-12.2h-4.437v12.326c0,5.084,3.019,8.6,9.275,8.6s9.276-3.513,9.276-8.6V430.386H706.9Z" transform="translate(-620.337 -430.046)" fill="#fff"/>
      <path id="Path_54" data-name="Path 54" d="M728.589,435.915c0-1.233,1.048-2.034,2.9-2.034a8.829,8.829,0,0,1,5.979,2.249l2.434-3.266A11.432,11.432,0,0,0,731.886,430c-4.838,0-7.8,2.835-7.8,6.256,0,7.734,11.833,5.238,11.833,8.813,0,1.2-1.141,2.28-3.575,2.28a9.031,9.031,0,0,1-6.533-2.8l-2.4,3.42a11.866,11.866,0,0,0,8.751,3.266c5.517,0,8.228-2.834,8.228-6.594C740.391,436.962,728.589,439.15,728.589,435.915Z" transform="translate(-626.647 -429.966)" fill="#fff"/>
    </g>
  </g>
</svg>
